<mxfile host="Electron" agent="Mozilla/5.0 (X11; Linux x86_64) AppleWebKit/537.36 (KHTML, like Gecko) draw.io/26.0.4 Chrome/128.0.6613.186 Electron/32.2.5 Safari/537.36" version="26.0.4" pages="4">
  <diagram name="Page-1" id="zfSvQJaZsZufqdghX2XC">
    <mxGraphModel dx="2273" dy="1405" grid="1" gridSize="10" guides="1" tooltips="1" connect="1" arrows="1" fold="1" page="1" pageScale="1" pageWidth="1100" pageHeight="850" math="0" shadow="0">
      <root>
        <mxCell id="0" />
        <mxCell id="1" parent="0" />
        <mxCell id="FrT6BHL49H01bfgqRIjt-3" value="" style="endArrow=classic;html=1;rounded=0;spacingLeft=10;spacing=20;" parent="1" target="FrT6BHL49H01bfgqRIjt-4" edge="1">
          <mxGeometry width="50" height="50" relative="1" as="geometry">
            <mxPoint x="120" y="140" as="sourcePoint" />
            <mxPoint x="200" y="140" as="targetPoint" />
          </mxGeometry>
        </mxCell>
        <mxCell id="FrT6BHL49H01bfgqRIjt-4" value="&lt;font style=&quot;font-size: 16px;&quot;&gt;Wind Farm Surrogate Models&lt;/font&gt;&lt;div&gt;&lt;span style=&quot;font-size: 16px; background-color: transparent; color: light-dark(rgb(0, 0, 0), rgb(255, 255, 255));&quot;&gt;&amp;amp;&lt;/span&gt;&lt;/div&gt;&lt;div&gt;&lt;div&gt;&lt;div&gt;&lt;font style=&quot;font-size: 16px;&quot;&gt;Metrics&lt;/font&gt;&lt;/div&gt;&lt;/div&gt;&lt;/div&gt;" style="rounded=0;whiteSpace=wrap;html=1;fillColor=#f5f5f5;strokeColor=#666666;fontColor=#333333;" parent="1" vertex="1">
          <mxGeometry x="200" y="80" width="240" height="120" as="geometry" />
        </mxCell>
        <mxCell id="FrT6BHL49H01bfgqRIjt-6" value="" style="endArrow=classic;html=1;rounded=0;exitX=1;exitY=0.5;exitDx=0;exitDy=0;entryX=0;entryY=0.5;entryDx=0;entryDy=0;" parent="1" source="FrT6BHL49H01bfgqRIjt-4" target="FrT6BHL49H01bfgqRIjt-8" edge="1">
          <mxGeometry width="50" height="50" relative="1" as="geometry">
            <mxPoint x="440" y="130" as="sourcePoint" />
            <mxPoint x="600" y="140" as="targetPoint" />
          </mxGeometry>
        </mxCell>
        <mxCell id="FrT6BHL49H01bfgqRIjt-8" value="Optimization Toolbox" style="rounded=0;whiteSpace=wrap;html=1;fontSize=16;fillColor=#f8cecc;strokeColor=#b85450;" parent="1" vertex="1">
          <mxGeometry x="680" y="80" width="240" height="120" as="geometry" />
        </mxCell>
        <mxCell id="FrT6BHL49H01bfgqRIjt-9" value="" style="endArrow=classic;html=1;rounded=0;entryX=0.5;entryY=1;entryDx=0;entryDy=0;exitX=0.5;exitY=1;exitDx=0;exitDy=0;" parent="1" source="FrT6BHL49H01bfgqRIjt-8" target="FrT6BHL49H01bfgqRIjt-4" edge="1">
          <mxGeometry width="50" height="50" relative="1" as="geometry">
            <mxPoint x="810" y="230" as="sourcePoint" />
            <mxPoint x="550" y="220" as="targetPoint" />
            <Array as="points">
              <mxPoint x="800" y="280" />
              <mxPoint x="320" y="280" />
            </Array>
          </mxGeometry>
        </mxCell>
        <mxCell id="gT_4JLrPsQnojmDvxY82-4" value="&lt;span style=&quot;font-size: 16px; text-wrap: nowrap; background-color: rgb(255, 255, 255);&quot;&gt;Individual metrics&lt;/span&gt;&lt;br style=&quot;font-size: 16px; text-wrap: nowrap;&quot;&gt;&lt;span style=&quot;font-size: 16px; text-wrap: nowrap; background-color: rgb(255, 255, 255);&quot;&gt;values&lt;/span&gt;" style="text;html=1;align=center;verticalAlign=middle;whiteSpace=wrap;rounded=0;fillColor=#d5e8d4;strokeColor=none;" vertex="1" parent="1">
          <mxGeometry x="490" y="110" width="150" height="60" as="geometry" />
        </mxCell>
        <mxCell id="gT_4JLrPsQnojmDvxY82-6" value="&lt;span style=&quot;font-size: 16px; text-wrap: nowrap; background-color: rgb(255, 255, 255);&quot;&gt;Ambient&lt;/span&gt;&lt;div&gt;&lt;span style=&quot;font-size: 16px; text-wrap: nowrap; background-color: rgb(255, 255, 255);&quot;&gt;conditions&lt;/span&gt;&lt;/div&gt;" style="text;html=1;align=center;verticalAlign=middle;whiteSpace=wrap;rounded=0;fillColor=#dae8fc;strokeColor=none;" vertex="1" parent="1">
          <mxGeometry x="30" y="110" width="100" height="60" as="geometry" />
        </mxCell>
        <mxCell id="gT_4JLrPsQnojmDvxY82-7" value="&lt;span style=&quot;font-size: 16px; text-wrap: nowrap; background-color: rgb(255, 255, 255);&quot;&gt;Control inputs/strategy&lt;/span&gt;&lt;div&gt;&lt;span style=&quot;font-size: 16px; text-wrap: nowrap; background-color: rgb(255, 255, 255);&quot;&gt;(&lt;i&gt;optimization variables&lt;/i&gt;)&lt;/span&gt;&lt;/div&gt;" style="text;html=1;align=center;verticalAlign=middle;whiteSpace=wrap;rounded=0;fillColor=#f8cecc;strokeColor=none;" vertex="1" parent="1">
          <mxGeometry x="450" y="250" width="190" height="60" as="geometry" />
        </mxCell>
        <mxCell id="gT_4JLrPsQnojmDvxY82-8" value="&lt;h1 style=&quot;margin-top: 0px;&quot;&gt;&lt;span style=&quot;font-weight: normal;&quot;&gt;Ambient conditions&lt;/span&gt;&lt;/h1&gt;&lt;p&gt;&lt;font style=&quot;font-size: 16px;&quot;&gt;Ambient wind&amp;nbsp;&lt;/font&gt;&lt;span style=&quot;font-size: 16px; background-color: transparent; color: light-dark(rgb(0, 0, 0), rgb(255, 255, 255));&quot;&gt;conditions&lt;/span&gt;&lt;/p&gt;&lt;p&gt;&lt;/p&gt;&lt;ul&gt;&lt;li&gt;&lt;span style=&quot;background-color: transparent; color: light-dark(rgb(0, 0, 0), rgb(255, 255, 255));&quot;&gt;&lt;font&gt;Wind speed&lt;/font&gt;&lt;/span&gt;&lt;/li&gt;&lt;li&gt;&lt;span style=&quot;background-color: transparent; color: light-dark(rgb(0, 0, 0), rgb(255, 255, 255));&quot;&gt;&lt;font&gt;Wind direction&lt;/font&gt;&lt;/span&gt;&lt;/li&gt;&lt;li&gt;&lt;span style=&quot;background-color: transparent; color: light-dark(rgb(0, 0, 0), rgb(255, 255, 255));&quot;&gt;&lt;font&gt;Turbulence Intensity&lt;/font&gt;&lt;/span&gt;&lt;/li&gt;&lt;li&gt;&lt;span style=&quot;background-color: transparent; color: light-dark(rgb(0, 0, 0), rgb(255, 255, 255));&quot;&gt;&lt;font&gt;...&lt;br&gt;&lt;/font&gt;&lt;/span&gt;&lt;/li&gt;&lt;/ul&gt;&lt;font style=&quot;font-size: 16px;&quot;&gt;Economic factors&lt;/font&gt;&lt;div&gt;&lt;ul&gt;&lt;li&gt;&lt;font&gt;Electricity price&lt;/font&gt;&lt;/li&gt;&lt;li&gt;&lt;font&gt;...&lt;/font&gt;&lt;/li&gt;&lt;/ul&gt;&lt;div&gt;&lt;font style=&quot;font-size: 16px;&quot;&gt;Ecological factors&lt;/font&gt;&lt;div&gt;&lt;ul&gt;&lt;li&gt;Marginal CO2 Displacement Factor&lt;/li&gt;&lt;li&gt;Bats/Birds actiivity&lt;/li&gt;&lt;li&gt;...&lt;/li&gt;&lt;/ul&gt;&lt;div&gt;&lt;br&gt;&lt;/div&gt;&lt;/div&gt;&lt;/div&gt;&lt;/div&gt;&lt;div&gt;&lt;br&gt;&lt;/div&gt;" style="text;html=1;whiteSpace=wrap;overflow=hidden;rounded=0;fillColor=#dae8fc;strokeColor=none;" vertex="1" parent="1">
          <mxGeometry x="40" y="360" width="215" height="320" as="geometry" />
        </mxCell>
        <mxCell id="gT_4JLrPsQnojmDvxY82-10" value="&lt;h1 style=&quot;margin-top: 0px;&quot;&gt;&lt;span style=&quot;font-weight: normal;&quot;&gt;Individual metrics&lt;/span&gt;&lt;/h1&gt;&lt;p&gt;&lt;span style=&quot;font-size: 16px;&quot;&gt;Energy Production&lt;/span&gt;&lt;/p&gt;&lt;p&gt;&lt;/p&gt;&lt;ul&gt;&lt;li&gt;&lt;span style=&quot;background-color: transparent; color: light-dark(rgb(0, 0, 0), rgb(255, 255, 255));&quot;&gt;&lt;font&gt;AEP&lt;/font&gt;&lt;/span&gt;&lt;/li&gt;&lt;li&gt;&lt;span style=&quot;background-color: transparent; color: light-dark(rgb(0, 0, 0), rgb(255, 255, 255));&quot;&gt;&lt;font&gt;Lifetime Energy Production&lt;/font&gt;&lt;/span&gt;&lt;/li&gt;&lt;li&gt;&lt;span style=&quot;background-color: transparent; color: light-dark(rgb(0, 0, 0), rgb(255, 255, 255));&quot;&gt;&lt;font&gt;...&lt;br&gt;&lt;/font&gt;&lt;/span&gt;&lt;/li&gt;&lt;/ul&gt;&lt;font style=&quot;font-size: 16px;&quot;&gt;Economic&lt;/font&gt;&lt;div&gt;&lt;ul&gt;&lt;li&gt;&lt;font&gt;LCOE&lt;/font&gt;&lt;/li&gt;&lt;li&gt;&lt;font&gt;...&lt;/font&gt;&lt;/li&gt;&lt;/ul&gt;&lt;div&gt;&lt;font style=&quot;font-size: 16px;&quot;&gt;Ecological&lt;/font&gt;&lt;div&gt;&lt;ul&gt;&lt;li&gt;&lt;span style=&quot;background-color: transparent; color: light-dark(rgb(0, 0, 0), rgb(255, 255, 255));&quot;&gt;GHG displacement&lt;/span&gt;&lt;br&gt;&lt;/li&gt;&lt;li&gt;&lt;span style=&quot;background-color: transparent; color: light-dark(rgb(0, 0, 0), rgb(255, 255, 255));&quot;&gt;GHG footprint&lt;/span&gt;&lt;/li&gt;&lt;li&gt;&lt;span style=&quot;background-color: transparent; color: light-dark(rgb(0, 0, 0), rgb(255, 255, 255));&quot;&gt;Bats/bird strike&lt;/span&gt;&lt;/li&gt;&lt;li&gt;...&lt;/li&gt;&lt;/ul&gt;&lt;div&gt;&lt;br&gt;&lt;/div&gt;&lt;/div&gt;&lt;/div&gt;&lt;/div&gt;&lt;div&gt;&lt;br&gt;&lt;/div&gt;" style="text;html=1;whiteSpace=wrap;overflow=hidden;rounded=0;fillColor=#d5e8d4;strokeColor=none;" vertex="1" parent="1">
          <mxGeometry x="440" y="360" width="215" height="320" as="geometry" />
        </mxCell>
        <mxCell id="gT_4JLrPsQnojmDvxY82-11" value="&lt;h1 style=&quot;margin-top: 0px;&quot;&gt;&lt;span style=&quot;font-weight: 400;&quot;&gt;Optimization Variables&lt;/span&gt;&lt;/h1&gt;&lt;p&gt;&lt;span style=&quot;font-size: 16px;&quot;&gt;Control inputs&lt;/span&gt;&lt;/p&gt;&lt;p&gt;&lt;/p&gt;&lt;ul&gt;&lt;li&gt;&lt;span style=&quot;background-color: transparent; color: light-dark(rgb(0, 0, 0), rgb(255, 255, 255));&quot;&gt;&lt;font&gt;Yaw setpoints&lt;/font&gt;&lt;/span&gt;&lt;/li&gt;&lt;li&gt;&lt;span style=&quot;background-color: transparent; color: light-dark(rgb(0, 0, 0), rgb(255, 255, 255));&quot;&gt;&lt;font&gt;Power setpoints&lt;/font&gt;&lt;/span&gt;&lt;/li&gt;&lt;li&gt;&lt;span style=&quot;background-color: transparent; color: light-dark(rgb(0, 0, 0), rgb(255, 255, 255));&quot;&gt;&lt;font&gt;...&lt;br&gt;&lt;/font&gt;&lt;/span&gt;&lt;/li&gt;&lt;/ul&gt;&lt;font style=&quot;font-size: 16px;&quot;&gt;Control strategies&lt;/font&gt;&lt;div&gt;&lt;ul&gt;&lt;li&gt;&lt;font&gt;Wake steering&lt;/font&gt;&lt;/li&gt;&lt;li&gt;&lt;font&gt;Down-regulation&lt;/font&gt;&lt;/li&gt;&lt;li&gt;&lt;font&gt;Shut-down strategies&lt;/font&gt;&lt;/li&gt;&lt;li&gt;&lt;font&gt;...&lt;/font&gt;&lt;/li&gt;&lt;/ul&gt;&lt;div&gt;&lt;font style=&quot;font-size: 16px; color: rgb(255, 128, 0);&quot;&gt;Design&lt;/font&gt;&lt;div&gt;&lt;ul&gt;&lt;li&gt;&lt;font style=&quot;color: rgb(255, 128, 0);&quot;&gt;Wind farm layout&lt;/font&gt;&lt;/li&gt;&lt;li&gt;&lt;font style=&quot;color: rgb(255, 128, 0);&quot;&gt;...&lt;/font&gt;&lt;/li&gt;&lt;/ul&gt;&lt;div&gt;&lt;br&gt;&lt;/div&gt;&lt;/div&gt;&lt;/div&gt;&lt;/div&gt;&lt;div&gt;&lt;br&gt;&lt;/div&gt;" style="text;html=1;whiteSpace=wrap;overflow=hidden;rounded=0;fillColor=#f8cecc;strokeColor=none;" vertex="1" parent="1">
          <mxGeometry x="830" y="360" width="250" height="320" as="geometry" />
        </mxCell>
      </root>
    </mxGraphModel>
  </diagram>
  <diagram id="dn9pyko7uiRJHrOSDT7O" name="Page-2">
    <mxGraphModel dx="1949" dy="1204" grid="1" gridSize="10" guides="1" tooltips="1" connect="1" arrows="1" fold="1" page="1" pageScale="1" pageWidth="1100" pageHeight="850" math="0" shadow="0">
      <root>
        <mxCell id="0" />
        <mxCell id="1" parent="0" />
        <mxCell id="hIf-dwHmqcnT7GMmw9Nq-1" value="" style="endArrow=classic;html=1;rounded=0;spacingLeft=10;spacing=20;" edge="1" parent="1" target="hIf-dwHmqcnT7GMmw9Nq-2">
          <mxGeometry width="50" height="50" relative="1" as="geometry">
            <mxPoint x="160" y="140" as="sourcePoint" />
            <mxPoint x="240" y="140" as="targetPoint" />
          </mxGeometry>
        </mxCell>
        <mxCell id="hIf-dwHmqcnT7GMmw9Nq-2" value="&lt;font style=&quot;font-size: 16px;&quot;&gt;Wind Farm Surrogate Models&lt;/font&gt;&lt;div&gt;&lt;span style=&quot;font-size: 16px; background-color: transparent; color: light-dark(rgb(0, 0, 0), rgb(255, 255, 255));&quot;&gt;&amp;amp;&lt;/span&gt;&lt;/div&gt;&lt;div&gt;&lt;div&gt;&lt;div&gt;&lt;font style=&quot;font-size: 16px;&quot;&gt;Metrics&lt;/font&gt;&lt;/div&gt;&lt;/div&gt;&lt;/div&gt;" style="rounded=0;whiteSpace=wrap;html=1;fillColor=#f5f5f5;strokeColor=#666666;fontColor=#333333;" vertex="1" parent="1">
          <mxGeometry x="240" y="80" width="240" height="120" as="geometry" />
        </mxCell>
        <mxCell id="hIf-dwHmqcnT7GMmw9Nq-3" value="" style="endArrow=classic;html=1;rounded=0;exitX=1;exitY=0.5;exitDx=0;exitDy=0;entryX=0;entryY=0.5;entryDx=0;entryDy=0;" edge="1" parent="1" source="hIf-dwHmqcnT7GMmw9Nq-2" target="hIf-dwHmqcnT7GMmw9Nq-4">
          <mxGeometry width="50" height="50" relative="1" as="geometry">
            <mxPoint x="480" y="130" as="sourcePoint" />
            <mxPoint x="640" y="140" as="targetPoint" />
          </mxGeometry>
        </mxCell>
        <mxCell id="hIf-dwHmqcnT7GMmw9Nq-4" value="Optimization Toolbox" style="rounded=0;whiteSpace=wrap;html=1;fontSize=16;fillColor=#ffe6cc;strokeColor=#d79b00;" vertex="1" parent="1">
          <mxGeometry x="720" y="80" width="240" height="120" as="geometry" />
        </mxCell>
        <mxCell id="hIf-dwHmqcnT7GMmw9Nq-5" value="" style="endArrow=classic;html=1;rounded=0;entryX=0.5;entryY=1;entryDx=0;entryDy=0;exitX=0.5;exitY=1;exitDx=0;exitDy=0;" edge="1" parent="1" source="hIf-dwHmqcnT7GMmw9Nq-4" target="hIf-dwHmqcnT7GMmw9Nq-2">
          <mxGeometry width="50" height="50" relative="1" as="geometry">
            <mxPoint x="850" y="230" as="sourcePoint" />
            <mxPoint x="590" y="220" as="targetPoint" />
            <Array as="points">
              <mxPoint x="840" y="280" />
              <mxPoint x="360" y="280" />
            </Array>
          </mxGeometry>
        </mxCell>
        <mxCell id="hIf-dwHmqcnT7GMmw9Nq-6" value="&lt;span style=&quot;font-size: 16px; text-wrap: nowrap; background-color: rgb(255, 255, 255);&quot;&gt;Individual metrics&lt;/span&gt;&lt;br style=&quot;font-size: 16px; text-wrap: nowrap;&quot;&gt;&lt;span style=&quot;font-size: 16px; text-wrap: nowrap; background-color: rgb(255, 255, 255);&quot;&gt;values&lt;/span&gt;" style="text;html=1;align=center;verticalAlign=middle;whiteSpace=wrap;rounded=0;fillColor=default;" vertex="1" parent="1">
          <mxGeometry x="530" y="110" width="150" height="60" as="geometry" />
        </mxCell>
        <mxCell id="hIf-dwHmqcnT7GMmw9Nq-7" value="&lt;span style=&quot;font-size: 16px; text-wrap: nowrap; background-color: rgb(255, 255, 255);&quot;&gt;Ambient&lt;/span&gt;&lt;div&gt;&lt;span style=&quot;font-size: 16px; text-wrap: nowrap; background-color: rgb(255, 255, 255);&quot;&gt;conditions&lt;/span&gt;&lt;/div&gt;" style="text;html=1;align=center;verticalAlign=middle;whiteSpace=wrap;rounded=0;" vertex="1" parent="1">
          <mxGeometry x="70" y="110" width="100" height="60" as="geometry" />
        </mxCell>
        <mxCell id="hIf-dwHmqcnT7GMmw9Nq-8" value="&lt;span style=&quot;font-size: 16px; text-wrap: nowrap; background-color: rgb(255, 255, 255);&quot;&gt;Control inputs/strategy&lt;/span&gt;&lt;div&gt;&lt;span style=&quot;font-size: 16px; text-wrap: nowrap; background-color: rgb(255, 255, 255);&quot;&gt;(&lt;i&gt;optimization variables&lt;/i&gt;)&lt;/span&gt;&lt;/div&gt;" style="text;html=1;align=center;verticalAlign=middle;whiteSpace=wrap;rounded=0;fillColor=default;" vertex="1" parent="1">
          <mxGeometry x="490" y="250" width="190" height="60" as="geometry" />
        </mxCell>
      </root>
    </mxGraphModel>
  </diagram>
  <diagram id="KbwhR1Dtl73itzy-bb1i" name="Page-3">
    <mxGraphModel dx="1364" dy="843" grid="1" gridSize="10" guides="1" tooltips="1" connect="1" arrows="1" fold="1" page="1" pageScale="1" pageWidth="1100" pageHeight="850" math="0" shadow="0">
      <root>
        <mxCell id="0" />
        <mxCell id="1" parent="0" />
        <mxCell id="SJA2-iWOG6K94MTAbat3-1" value="&lt;font style=&quot;font-size: 16px;&quot;&gt;Optimization Toolbox&lt;/font&gt;" style="rounded=0;whiteSpace=wrap;html=1;fillColor=#ffe6cc;strokeColor=#d79b00;labelPosition=center;verticalLabelPosition=middle;align=center;verticalAlign=top;horizontal=1;fillOpacity=50;" vertex="1" parent="1">
          <mxGeometry x="320" y="170" width="340" height="320" as="geometry" />
        </mxCell>
        <mxCell id="SJA2-iWOG6K94MTAbat3-3" value="Individual metric values" style="text;html=1;align=center;verticalAlign=middle;whiteSpace=wrap;rounded=0;fontSize=16;" vertex="1" parent="1">
          <mxGeometry x="150" y="235" width="110" height="30" as="geometry" />
        </mxCell>
        <mxCell id="SJA2-iWOG6K94MTAbat3-4" value="" style="endArrow=classic;html=1;rounded=0;exitX=1;exitY=0.5;exitDx=0;exitDy=0;entryX=0;entryY=0.5;entryDx=0;entryDy=0;" edge="1" parent="1" source="SJA2-iWOG6K94MTAbat3-3" target="SJA2-iWOG6K94MTAbat3-5">
          <mxGeometry width="50" height="50" relative="1" as="geometry">
            <mxPoint x="295.00000000000045" y="250" as="sourcePoint" />
            <mxPoint x="335" y="250" as="targetPoint" />
          </mxGeometry>
        </mxCell>
        <mxCell id="SJA2-iWOG6K94MTAbat3-5" value="&lt;font style=&quot;font-size: 16px;&quot;&gt;Multi-Objective&lt;/font&gt;&lt;div&gt;&lt;font style=&quot;font-size: 16px;&quot;&gt;function and constraints&lt;/font&gt;&lt;/div&gt;" style="rounded=0;whiteSpace=wrap;html=1;" vertex="1" parent="1">
          <mxGeometry x="400" y="210" width="140" height="80" as="geometry" />
        </mxCell>
        <mxCell id="SJA2-iWOG6K94MTAbat3-6" value="" style="endArrow=none;html=1;rounded=0;exitX=1;exitY=0.5;exitDx=0;exitDy=0;endFill=0;entryX=0.5;entryY=0;entryDx=0;entryDy=0;" edge="1" parent="1" source="SJA2-iWOG6K94MTAbat3-5" target="SJA2-iWOG6K94MTAbat3-7">
          <mxGeometry width="50" height="50" relative="1" as="geometry">
            <mxPoint x="215" y="360" as="sourcePoint" />
            <mxPoint x="495" y="310" as="targetPoint" />
            <Array as="points">
              <mxPoint x="600" y="250" />
            </Array>
          </mxGeometry>
        </mxCell>
        <mxCell id="SJA2-iWOG6K94MTAbat3-7" value="MO function&lt;div&gt;value&lt;/div&gt;" style="text;html=1;align=center;verticalAlign=middle;whiteSpace=wrap;rounded=0;fontSize=16;" vertex="1" parent="1">
          <mxGeometry x="530" y="315" width="140" height="30" as="geometry" />
        </mxCell>
        <mxCell id="SJA2-iWOG6K94MTAbat3-8" value="&lt;font style=&quot;font-size: 16px;&quot;&gt;MO optimization&lt;/font&gt;" style="rounded=0;whiteSpace=wrap;html=1;" vertex="1" parent="1">
          <mxGeometry x="400" y="370" width="140" height="80" as="geometry" />
        </mxCell>
        <mxCell id="SJA2-iWOG6K94MTAbat3-9" value="" style="endArrow=classic;html=1;rounded=0;entryX=1;entryY=0.5;entryDx=0;entryDy=0;exitX=0.5;exitY=1;exitDx=0;exitDy=0;" edge="1" parent="1" source="SJA2-iWOG6K94MTAbat3-7" target="SJA2-iWOG6K94MTAbat3-8">
          <mxGeometry width="50" height="50" relative="1" as="geometry">
            <mxPoint x="115" y="370" as="sourcePoint" />
            <mxPoint x="165" y="320" as="targetPoint" />
            <Array as="points">
              <mxPoint x="600" y="410" />
            </Array>
          </mxGeometry>
        </mxCell>
        <mxCell id="SJA2-iWOG6K94MTAbat3-10" value="" style="endArrow=classic;html=1;rounded=0;exitX=0;exitY=0.5;exitDx=0;exitDy=0;endFill=1;entryX=1;entryY=0.5;entryDx=0;entryDy=0;" edge="1" parent="1" source="SJA2-iWOG6K94MTAbat3-8" target="SJA2-iWOG6K94MTAbat3-11">
          <mxGeometry width="50" height="50" relative="1" as="geometry">
            <mxPoint x="335" y="410" as="sourcePoint" />
            <mxPoint x="310.00000000000045" y="410" as="targetPoint" />
          </mxGeometry>
        </mxCell>
        <mxCell id="SJA2-iWOG6K94MTAbat3-11" value="Control inputs/&lt;span style=&quot;background-color: transparent; color: light-dark(rgb(0, 0, 0), rgb(255, 255, 255));&quot;&gt;strategy&lt;/span&gt;&lt;div&gt;(&lt;i&gt;optimization var&lt;/i&gt;&lt;span style=&quot;background-color: transparent; color: light-dark(rgb(0, 0, 0), rgb(255, 255, 255));&quot;&gt;&lt;i&gt;iables&lt;/i&gt;)&lt;/span&gt;&lt;/div&gt;" style="text;html=1;align=center;verticalAlign=middle;whiteSpace=wrap;rounded=0;fontSize=16;" vertex="1" parent="1">
          <mxGeometry x="100" y="370" width="180" height="80" as="geometry" />
        </mxCell>
        <mxCell id="SJA2-iWOG6K94MTAbat3-13" value="User configuration I" style="text;html=1;align=center;verticalAlign=middle;whiteSpace=wrap;rounded=0;fontSize=16;" vertex="1" parent="1">
          <mxGeometry x="300" y="100" width="120" height="30" as="geometry" />
        </mxCell>
        <mxCell id="SJA2-iWOG6K94MTAbat3-14" value="" style="endArrow=classic;html=1;rounded=0;entryX=0;entryY=0.25;entryDx=0;entryDy=0;" edge="1" parent="1" target="SJA2-iWOG6K94MTAbat3-5">
          <mxGeometry width="50" height="50" relative="1" as="geometry">
            <mxPoint x="360" y="140" as="sourcePoint" />
            <mxPoint x="395" y="230" as="targetPoint" />
            <Array as="points">
              <mxPoint x="360" y="230" />
            </Array>
          </mxGeometry>
        </mxCell>
        <mxCell id="SJA2-iWOG6K94MTAbat3-15" value="User&lt;div&gt;configuration II&lt;/div&gt;" style="text;html=1;align=center;verticalAlign=middle;whiteSpace=wrap;rounded=0;fontSize=16;" vertex="1" parent="1">
          <mxGeometry x="525" y="510" width="150" height="50" as="geometry" />
        </mxCell>
        <mxCell id="SJA2-iWOG6K94MTAbat3-16" value="" style="endArrow=classic;html=1;rounded=0;entryX=1;entryY=0.75;entryDx=0;entryDy=0;" edge="1" parent="1" target="SJA2-iWOG6K94MTAbat3-8">
          <mxGeometry width="50" height="50" relative="1" as="geometry">
            <mxPoint x="600" y="510" as="sourcePoint" />
            <mxPoint x="540" y="430" as="targetPoint" />
            <Array as="points">
              <mxPoint x="600" y="430" />
            </Array>
          </mxGeometry>
        </mxCell>
      </root>
    </mxGraphModel>
  </diagram>
  <diagram id="DLefD0xWtitv0V7PCgxa" name="Page-4">
    <mxGraphModel dx="1705" dy="1054" grid="1" gridSize="10" guides="1" tooltips="1" connect="1" arrows="1" fold="1" page="1" pageScale="1" pageWidth="1100" pageHeight="850" math="1" shadow="0">
      <root>
        <mxCell id="0" />
        <mxCell id="1" parent="0" />
        <mxCell id="UOdadI4oT50nUuFoZE4r-4" value="&lt;font style=&quot;font-size: 20px;&quot;&gt;TWAIN WP 3&lt;/font&gt;" style="rounded=0;whiteSpace=wrap;html=1;fillColor=#f9f7ed;strokeColor=#36393d;labelPosition=center;verticalLabelPosition=middle;align=center;verticalAlign=top;horizontal=1;fillOpacity=50;" vertex="1" parent="1">
          <mxGeometry x="450" y="280" width="160" height="140" as="geometry" />
        </mxCell>
        <mxCell id="UOdadI4oT50nUuFoZE4r-5" value="&lt;font style=&quot;font-size: 20px;&quot;&gt;TWAIN WP 2&lt;/font&gt;" style="rounded=0;whiteSpace=wrap;html=1;fillColor=#f9f7ed;strokeColor=#36393d;labelPosition=center;verticalLabelPosition=middle;align=center;verticalAlign=top;horizontal=1;fillOpacity=50;" vertex="1" parent="1">
          <mxGeometry x="175" y="280" width="160" height="140" as="geometry" />
        </mxCell>
        <mxCell id="UOdadI4oT50nUuFoZE4r-6" value="Wind" style="text;html=1;align=center;verticalAlign=middle;whiteSpace=wrap;rounded=0;fontSize=16;" vertex="1" parent="1">
          <mxGeometry x="60" y="345" width="60" height="30" as="geometry" />
        </mxCell>
        <mxCell id="UOdadI4oT50nUuFoZE4r-7" value="" style="endArrow=classic;html=1;rounded=0;exitX=1;exitY=0.5;exitDx=0;exitDy=0;" edge="1" parent="1" source="UOdadI4oT50nUuFoZE4r-6" target="UOdadI4oT50nUuFoZE4r-8">
          <mxGeometry width="50" height="50" relative="1" as="geometry">
            <mxPoint x="195" y="350" as="sourcePoint" />
            <mxPoint x="195" y="370" as="targetPoint" />
          </mxGeometry>
        </mxCell>
        <mxCell id="UOdadI4oT50nUuFoZE4r-8" value="Wind farm&lt;div&gt;surrogate models&lt;/div&gt;" style="rounded=0;whiteSpace=wrap;html=1;" vertex="1" parent="1">
          <mxGeometry x="195" y="320" width="120" height="80" as="geometry" />
        </mxCell>
        <mxCell id="UOdadI4oT50nUuFoZE4r-9" value="" style="endArrow=none;html=1;rounded=0;exitX=1;exitY=0.75;exitDx=0;exitDy=0;endFill=0;entryX=0;entryY=0.5;entryDx=0;entryDy=0;" edge="1" parent="1" source="UOdadI4oT50nUuFoZE4r-8" target="UOdadI4oT50nUuFoZE4r-10">
          <mxGeometry width="50" height="50" relative="1" as="geometry">
            <mxPoint x="635" y="460" as="sourcePoint" />
            <mxPoint x="345" y="300" as="targetPoint" />
          </mxGeometry>
        </mxCell>
        <mxCell id="UOdadI4oT50nUuFoZE4r-10" value="Model outputs" style="text;html=1;align=center;verticalAlign=middle;whiteSpace=wrap;rounded=0;" vertex="1" parent="1">
          <mxGeometry x="355" y="365" width="80" height="30" as="geometry" />
        </mxCell>
        <mxCell id="UOdadI4oT50nUuFoZE4r-11" value="Metrics evaluation" style="rounded=0;whiteSpace=wrap;html=1;fontSize=16;" vertex="1" parent="1">
          <mxGeometry x="470" y="320" width="120" height="80" as="geometry" />
        </mxCell>
        <mxCell id="UOdadI4oT50nUuFoZE4r-12" value="" style="endArrow=classic;html=1;rounded=0;exitX=1;exitY=0.5;exitDx=0;exitDy=0;entryX=0;entryY=0.75;entryDx=0;entryDy=0;" edge="1" parent="1" source="UOdadI4oT50nUuFoZE4r-10" target="UOdadI4oT50nUuFoZE4r-11">
          <mxGeometry width="50" height="50" relative="1" as="geometry">
            <mxPoint x="436" y="370" as="sourcePoint" />
            <mxPoint x="680" y="410" as="targetPoint" />
          </mxGeometry>
        </mxCell>
        <mxCell id="UOdadI4oT50nUuFoZE4r-28" value="&lt;font style=&quot;font-size: 16px;&quot;&gt;Economic&lt;/font&gt;" style="text;html=1;align=center;verticalAlign=middle;whiteSpace=wrap;rounded=0;" vertex="1" parent="1">
          <mxGeometry x="50" y="130" width="80" height="30" as="geometry" />
        </mxCell>
        <mxCell id="UOdadI4oT50nUuFoZE4r-29" value="" style="endArrow=classic;html=1;rounded=0;exitX=1;exitY=0.5;exitDx=0;exitDy=0;entryX=0;entryY=0.25;entryDx=0;entryDy=0;" edge="1" parent="1" source="UOdadI4oT50nUuFoZE4r-28" target="UOdadI4oT50nUuFoZE4r-11">
          <mxGeometry width="50" height="50" relative="1" as="geometry">
            <mxPoint x="405" y="130" as="sourcePoint" />
            <mxPoint x="470" y="295" as="targetPoint" />
            <Array as="points">
              <mxPoint x="415" y="145" />
              <mxPoint x="415" y="340" />
            </Array>
          </mxGeometry>
        </mxCell>
        <mxCell id="UOdadI4oT50nUuFoZE4r-30" value="&lt;font style=&quot;font-size: 16px;&quot;&gt;Ecological&lt;/font&gt;" style="text;html=1;align=center;verticalAlign=middle;whiteSpace=wrap;rounded=0;" vertex="1" parent="1">
          <mxGeometry x="40" y="240" width="90" height="30" as="geometry" />
        </mxCell>
        <mxCell id="UOdadI4oT50nUuFoZE4r-31" value="" style="endArrow=classic;html=1;rounded=0;entryX=0;entryY=0.5;entryDx=0;entryDy=0;exitX=1;exitY=0.5;exitDx=0;exitDy=0;" edge="1" parent="1" source="UOdadI4oT50nUuFoZE4r-30" target="UOdadI4oT50nUuFoZE4r-11">
          <mxGeometry width="50" height="50" relative="1" as="geometry">
            <mxPoint x="110" y="235" as="sourcePoint" />
            <mxPoint x="440" y="375" as="targetPoint" />
            <Array as="points">
              <mxPoint x="385" y="255" />
              <mxPoint x="385" y="360" />
            </Array>
          </mxGeometry>
        </mxCell>
        <mxCell id="qCoQSYP7HP4EgO1AtEAH-1" value="Optimization Toolbox" style="rounded=0;whiteSpace=wrap;html=1;fontSize=16;fillColor=#ffe6cc;strokeColor=#d79b00;" vertex="1" parent="1">
          <mxGeometry x="790" y="290" width="200" height="140" as="geometry" />
        </mxCell>
        <mxCell id="qGXK5e7e_L4wZkXZ1VBj-1" value="" style="endArrow=classic;html=1;rounded=0;exitX=1;exitY=0.5;exitDx=0;exitDy=0;entryX=0;entryY=0.5;entryDx=0;entryDy=0;" edge="1" parent="1" source="UOdadI4oT50nUuFoZE4r-11" target="qCoQSYP7HP4EgO1AtEAH-1">
          <mxGeometry width="50" height="50" relative="1" as="geometry">
            <mxPoint x="600" y="360" as="sourcePoint" />
            <mxPoint x="840" y="360" as="targetPoint" />
          </mxGeometry>
        </mxCell>
        <mxCell id="qGXK5e7e_L4wZkXZ1VBj-2" value="" style="endArrow=classic;html=1;rounded=0;entryX=0.5;entryY=1;entryDx=0;entryDy=0;exitX=0.5;exitY=1;exitDx=0;exitDy=0;" edge="1" parent="1" source="qCoQSYP7HP4EgO1AtEAH-1" target="UOdadI4oT50nUuFoZE4r-8">
          <mxGeometry width="50" height="50" relative="1" as="geometry">
            <mxPoint x="870" y="420" as="sourcePoint" />
            <mxPoint x="390" y="420" as="targetPoint" />
            <Array as="points">
              <mxPoint x="890" y="500" />
              <mxPoint x="255" y="500" />
            </Array>
          </mxGeometry>
        </mxCell>
        <mxCell id="qGXK5e7e_L4wZkXZ1VBj-3" value="&lt;span style=&quot;font-size: 16px; text-wrap: nowrap; background-color: rgb(255, 255, 255);&quot;&gt;Individual metrics&lt;/span&gt;&lt;br style=&quot;font-size: 16px; text-wrap: nowrap;&quot;&gt;&lt;span style=&quot;font-size: 16px; text-wrap: nowrap; background-color: rgb(255, 255, 255);&quot;&gt;values&lt;/span&gt;" style="text;html=1;align=center;verticalAlign=middle;whiteSpace=wrap;rounded=0;fillColor=default;" vertex="1" parent="1">
          <mxGeometry x="620" y="330" width="150" height="60" as="geometry" />
        </mxCell>
        <mxCell id="qGXK5e7e_L4wZkXZ1VBj-4" value="&lt;span style=&quot;font-size: 16px; text-wrap: nowrap; background-color: rgb(255, 255, 255);&quot;&gt;Control inputs/strategy&lt;/span&gt;&lt;div&gt;&lt;span style=&quot;font-size: 16px; text-wrap: nowrap; background-color: rgb(255, 255, 255);&quot;&gt;(&lt;i&gt;optimization variables&lt;/i&gt;)&lt;/span&gt;&lt;/div&gt;" style="text;html=1;align=center;verticalAlign=middle;whiteSpace=wrap;rounded=0;fillColor=default;" vertex="1" parent="1">
          <mxGeometry x="470" y="470" width="190" height="60" as="geometry" />
        </mxCell>
        <mxCell id="qGXK5e7e_L4wZkXZ1VBj-5" value="&lt;font style=&quot;font-size: 16px;&quot;&gt;&lt;b&gt;Ambient&lt;/b&gt;&lt;/font&gt;&lt;div&gt;&lt;font style=&quot;font-size: 16px;&quot;&gt;&lt;b&gt;conditions&lt;/b&gt;&lt;/font&gt;&lt;/div&gt;" style="rounded=0;whiteSpace=wrap;html=1;fillColor=none;verticalAlign=top;" vertex="1" parent="1">
          <mxGeometry x="30" y="60" width="110" height="360" as="geometry" />
        </mxCell>
      </root>
    </mxGraphModel>
  </diagram>
</mxfile>
